<svg xmlns="http://www.w3.org/2000/svg" viewBox="0 0 64 64">
  <title>ChrowmDesigns</title>
  <rect width="64" height="64" rx="12" fill="#1b1b1b" />
  <path fill="#fff" transform="translate(12 -3.36) scale(1.6)" d="M23.76,25.08c.14-.28.41-.41.76-.41.55,0,.93.38.83.79-1.45,5.77-5.94,9.08-12.36,9.08-7.56,0-12.98-5.04-12.98-12.09,0-7.53,5.7-12.78,13.92-12.78,6.18,0,10.46,2.45,10.46,6.01,0,2.76-2.04,4.77-4.8,4.77-2.24,0-3.59-1-3.59-2.69,0-1.31,1.24-2.56,1.24-4.11,0-1.24-.83-1.86-2.42-1.86-3.11,0-5.87,4.35-5.87,9.98,0,5.32,2.87,8.81,7.32,8.81,3.21,0,5.63-1.8,7.49-5.49Z" />
</svg>
