<svg xmlns="http://www.w3.org/2000/svg" id="Layer_1" viewBox="0 0 200 34.54"><path d="M23.76,25.08c.14-.28.41-.41.76-.41.55,0,.93.38.83.79-1.45,5.77-5.94,9.08-12.36,9.08-7.56,0-12.98-5.04-12.98-12.09,0-7.53,5.7-12.78,13.92-12.78,6.18,0,10.46,2.45,10.46,6.01,0,2.76-2.04,4.77-4.8,4.77-2.24,0-3.59-1-3.59-2.69,0-1.31,1.24-2.56,1.24-4.11,0-1.24-.83-1.86-2.42-1.86-3.11,0-5.87,4.35-5.87,9.98,0,5.32,2.87,8.81,7.32,8.81,3.21,0,5.63-1.8,7.49-5.49Z"></path><path d="M26.84,11.23c0-8.15-1.83-6.73-1.83-8.67,0-1.11.41-1.38,2.42-1.66,2.45-.35,5.94-.83,6.73-.9.86-.07,1.31.28,1.31.97v11.85c1.83-1.97,4.87-3.14,8.36-3.14,4.77,0,7.6,2.18,7.6,5.87v5.7c0,10.43,1.83,8.94,1.83,11.43,0,1.07-.38,1.52-1.14,1.52h-10.01c-.76,0-1.14-.45-1.14-1.52,0-2.49,1.83-1,1.83-11.43v-2.97c0-3.8-.86-5.35-2.94-5.35-1.8,0-3.49,1.07-4.39,2.62v5.7c0,10.43,1.83,8.94,1.83,11.43,0,1.07-.38,1.52-1.14,1.52h-10.01c-.76,0-1.14-.45-1.14-1.52,0-2.49,1.83-1,1.83-11.43v-10.01Z"></path><path d="M65.34,21.25c0,10.43,1.83,8.94,1.83,11.43,0,1.07-.38,1.52-1.14,1.52h-10.01c-.76,0-1.14-.45-1.14-1.52,0-2.49,1.83-1,1.83-11.43,0-8.15-1.83-6.73-1.83-8.67,0-1.11.41-1.38,2.42-1.66,2.45-.35,5.94-.83,6.73-.9.86-.07,1.31.28,1.31.97v3.56c1.62-3.18,4.8-4.87,7.74-4.87,3.56,0,6.11,2.52,6.11,6.04,0,2.94-1.8,4.73-4.8,4.73-2.24,0-3.25-1.21-3.25-3.97,0-1.59.21-3.11-1.14-3.11-2.11,0-4.35,3.63-4.66,7.25v.62Z"></path><path d="M92.61,9.68c7.84,0,12.78,4.42,12.78,12.36s-4.8,12.5-12.78,12.5-12.78-4.35-12.78-12.5,4.94-12.36,12.78-12.36ZM92.61,32.82c2.66,0,4.14-3.83,4.14-10.74s-1.48-10.67-4.14-10.67-4.14,3.83-4.14,10.67,1.48,10.74,4.14,10.74Z"></path><path d="M135.03,33.54c-.21.41-.79.66-1.42.66h-1.55c-.62,0-1.42-.24-1.62-.66l-5.84-14.19-4.77,14.19c-.21.41-.79.66-1.42.66h-1.55c-.62,0-1.42-.24-1.62-.66l-6.87-16.71c-1.76-4.28-4.66-3.87-4.66-5.28,0-1.07.38-1.52,1.14-1.52h9.05c.73,0,1.17.28,1.73,1.66l5.35,13.02,2.59-7.87c-1.76-4.28-4.66-3.87-4.66-5.28,0-1.07.38-1.52,1.14-1.52h9.05c.73,0,1.17.28,1.73,1.66l5.35,13.02,2.8-8.5c1.14-3.49-2.76-2.94-2.76-4.66,0-1.07.38-1.52,1.14-1.52h5.39c.76,0,1.14.45,1.14,1.52,0,1.59-1.86,1.24-3.25,5.32l-5.59,16.68Z"></path><path d="M159.92,12.92c-1.8,0-3.49,1.07-4.39,2.62v5.7c0,10.43,1.83,8.94,1.83,11.43,0,1.07-.38,1.52-1.14,1.52h-10.01c-.76,0-1.14-.45-1.14-1.52,0-2.49,1.83-1,1.83-11.43,0-8.15-1.83-6.73-1.83-8.67,0-1.11.41-1.38,2.42-1.66,2.45-.35,5.94-.83,6.73-.9.86-.07,1.31.28,1.31.97v1.83c1.83-1.97,4.87-3.14,8.36-3.14,3.7,0,6.25,1.31,7.18,3.63,1.73-2.28,5.01-3.63,8.77-3.63,4.77,0,7.6,2.18,7.6,5.87v5.7c0,10.43,1.83,8.94,1.83,11.43,0,1.07-.38,1.52-1.14,1.52h-10.01c-.76,0-1.14-.45-1.14-1.52,0-2.49,1.83-1,1.83-11.43v-2.97c0-3.8-.86-5.35-2.94-5.35-1.8,0-3.49,1.07-4.39,2.62v5.7c0,10.43,1.83,8.94,1.83,11.43,0,1.07-.38,1.52-1.14,1.52h-10.01c-.76,0-1.14-.45-1.14-1.52,0-2.49,1.83-1,1.83-11.43v-2.97c0-3.8-.86-5.35-2.94-5.35Z"></path><path d="M195.3,25.81c2.66,0,4.7,1.86,4.7,4.39s-2.04,4.35-4.7,4.35-4.7-1.9-4.7-4.35,2.07-4.39,4.7-4.39Z"></path></svg>